# xmcd
#
# Track frame offsets:
#	150
#	13289
#	27777
#	40401
#	49357
#	65074
#	73757
#	85158
#	92493
#	99712
#	107571
#	122660
#	134057
#	143773
#	156360
#	168212
#	182847
#	192408
#	207906
#	226292
#	252004
#	268361
#	280450
#	296005
#	306124
#
# Disc length: 4284 seconds
#
# Revision: 0
# Processed by: cddbd v1.5.1PL0 Copyright (c) Steve Scherf et al.
# Submitted via: dBpowerAMP V4.0
#
DISCID=8010ba19
DTITLE=Hank Williams - Lost Highway And Other Live Favourites
DYEAR=2005
DGENRE=Country
TTITLE0=Move It On Over - Live
TTITLE1=Lovesick Blues - Live
TTITLE2=You're Gonna Change (Or I'm Gonna Leave)
TTITLE3=I Can't Help It (If I'm Still In Love With You)
TTITLE4=I Just Don't Like This Kind Of Livin' - Live
TTITLE5=Honky Tonk Blues
TTITLE6=Cold Cold Heart
TTITLE7=Baby, We're Really In Love - Live
TTITLE8=They'll Never Take Her Love From Me - Live
TTITLE9=Why Don't You Love Me
TTITLE10=Moanin' The Blues - Live
TTITLE11=Nobody's Lonesome For Me
TTITLE12=Dear John - Live
TTITLE13=Hey Good Lookin' - Live
TTITLE14=The Old Country Church - Live
TTITLE15=Driftin' Too Far From Shore
TTITLE16=Let The Spirit Descend - Live
TTITLE17=Jambalaya (On The Bayou) - Live
TTITLE18=Lost Highway
TTITLE19=I'm A Long Gone Daddy
TTITLE20=Long Gone Lonesome Blues
TTITLE21=Half As Much - Live
TTITLE22=Window Shopping - Live
TTITLE23=Honky Tonkin'
TTITLE24=Interview
EXTD=
EXTT0=
EXTT1=
EXTT2=
EXTT3=
EXTT4=
EXTT5=
EXTT6=
EXTT7=
EXTT8=
EXTT9=
EXTT10=
EXTT11=
EXTT12=
EXTT13=
EXTT14=
EXTT15=
EXTT16=
EXTT17=
EXTT18=
EXTT19=
EXTT20=
EXTT21=
EXTT22=
EXTT23=
EXTT24=
PLAYORDER=
